<?xml version="1.0" encoding="UTF-8"?>
<svg width="14px" height="17px" viewBox="0 0 14 17" version="1.1" xmlns="http://www.w3.org/2000/svg" xmlns:xlink="http://www.w3.org/1999/xlink">
    <title>􀈑</title>
    <g id="Page-1" stroke="none" stroke-width="1" fill="none" fill-rule="evenodd">
        <path d="M9.80078125,16.0712891 C10.7783203,16.0712891 11.4345703,15.4355469 11.4824219,14.4580078 L11.9541016,4.51855469 L12.7744141,4.51855469 C13.0546875,4.51855469 13.2871094,4.27929688 13.2871094,3.99902344 C13.2871094,3.71875 13.0546875,3.48632812 12.7744141,3.48632812 L9.65039062,3.48632812 L9.65039062,2.44042969 C9.65039062,1.44921875 9.0078125,0.84765625 7.95507812,0.84765625 L5.36425781,0.84765625 C4.31152344,0.84765625 3.66894531,1.44921875 3.66894531,2.44042969 L3.66894531,3.48632812 L0.55859375,3.48632812 C0.28515625,3.48632812 0.0458984375,3.71875 0.0458984375,3.99902344 C0.0458984375,4.28613281 0.28515625,4.51855469 0.55859375,4.51855469 L1.37890625,4.51855469 L1.85058594,14.4648438 C1.8984375,15.4423828 2.54785156,16.0712891 3.53222656,16.0712891 L9.80078125,16.0712891 Z M8.56347656,3.48632812 L4.75585938,3.48632812 L4.75585938,2.50878906 C4.75585938,2.11914062 5.02246094,1.86621094 5.43261719,1.86621094 L7.88671875,1.86621094 C8.296875,1.86621094 8.56347656,2.11914062 8.56347656,2.50878906 L8.56347656,3.48632812 Z M9.69140625,15.0390625 L3.62792969,15.0390625 C3.23828125,15.0390625 2.94433594,14.7451172 2.92382812,14.3417969 L2.4453125,4.51855469 L10.8535156,4.51855469 L10.4091797,14.3417969 C10.3886719,14.7519531 10.0947266,15.0390625 9.69140625,15.0390625 Z M4.63964844,13.8701172 C4.89941406,13.8701172 5.0703125,13.7060547 5.06347656,13.4667969 L4.85839844,6.15234375 C4.8515625,5.91308594 4.67382812,5.75585938 4.42773438,5.75585938 C4.16796875,5.75585938 3.99707031,5.91992188 4.00390625,6.15917969 L4.21582031,13.4667969 C4.22265625,13.7128906 4.38671875,13.8701172 4.63964844,13.8701172 Z M6.66992188,13.8701172 C6.9296875,13.8701172 7.10742188,13.7060547 7.10742188,13.4667969 L7.10742188,6.15917969 C7.10742188,5.91992188 6.9296875,5.75585938 6.66992188,5.75585938 C6.41015625,5.75585938 6.22558594,5.91992188 6.22558594,6.15917969 L6.22558594,13.4667969 C6.22558594,13.7060547 6.41015625,13.8701172 6.66992188,13.8701172 Z M8.69335937,13.8701172 C8.93945312,13.8701172 9.11035156,13.7128906 9.1171875,13.4667969 L9.32910156,6.15917969 C9.3359375,5.91992188 9.15820312,5.75585938 8.8984375,5.75585938 C8.65917969,5.75585938 8.48144531,5.91308594 8.47460937,6.15917969 L8.26953125,13.4667969 C8.26269531,13.7060547 8.43359375,13.8701172 8.69335937,13.8701172 Z" id="􀈑" fill="#F87171" fill-rule="nonzero"></path>
    </g>
</svg>