<?xml version="1.0" encoding="utf-8"?>
<!-- Generator: Adobe Illustrator 17.0.0, SVG Export Plug-In . SVG Version: 6.00 Build 0)  -->
<!DOCTYPE svg PUBLIC "-//W3C//DTD SVG 1.1//EN" "http://www.w3.org/Graphics/SVG/1.1/DTD/svg11.dtd">
<svg version="1.1" id="Слой_3" xmlns="http://www.w3.org/2000/svg" xmlns:xlink="http://www.w3.org/1999/xlink" x="0px" y="0px"
	 width="128px" height="128px" viewBox="0 0 128 128" enable-background="new 0 0 128 128" xml:space="preserve">
<ellipse fill="#B8CBCD" cx="65.404" cy="108.687" rx="47.667" ry="11.813"/>
<polygon fill="#F6E89A" points="70.072,88.5 50.072,88.5 50.072,14.5 59.822,9.5 70.072,14.5 "/>
<path fill="#6E4123" d="M70.072,90.5h-20c-1.104,0-2-0.896-2-2v-74c0-0.75,0.42-1.438,1.087-1.779l9.75-5
	c0.562-0.288,1.223-0.294,1.79-0.019l10.25,5c0.688,0.336,1.123,1.033,1.123,1.798v74C72.072,89.604,71.176,90.5,70.072,90.5z
	 M52.072,86.5h16V15.75l-8.228-4.014l-7.772,3.985V86.5z"/>
<path fill="#6E4123" d="M60.5,90.5c-1.104,0-2-0.896-2-2v-79c0-1.104,0.896-2,2-2s2,0.896,2,2v79C62.5,89.604,61.604,90.5,60.5,90.5
	z"/>
<polygon fill="#F6E89A" points="95.201,92.117 75.252,90.677 80.583,16.869 90.667,12.585 100.531,18.31 "/>
<path fill="#6E4123" d="M95.203,94.117c-0.048,0-0.097-0.002-0.146-0.005l-19.949-1.44c-0.528-0.038-1.021-0.285-1.368-0.687
	c-0.347-0.401-0.521-0.924-0.482-1.453l5.331-73.808c0.055-0.748,0.522-1.403,1.213-1.696l10.084-4.284
	c0.579-0.246,1.24-0.206,1.786,0.111l9.863,5.725c0.661,0.384,1.046,1.111,0.991,1.874l-5.33,73.808
	C97.12,93.313,96.242,94.117,95.203,94.117z M77.391,88.826l15.959,1.152l5.096-70.566l-7.917-4.595l-8.038,3.415L77.391,88.826z"/>
<path fill="#6E4123" d="M85.228,93.397c-0.048,0-0.097-0.002-0.146-0.005c-1.102-0.08-1.93-1.037-1.851-2.14l5.691-78.795
	c0.08-1.1,1.004-1.919,2.14-1.851c1.102,0.08,1.93,1.037,1.851,2.14l-5.692,78.796C87.145,92.594,86.267,93.397,85.228,93.397z"/>
<polygon fill="#F6E89A" points="45.332,74.704 26.07,80.088 12.072,30.008 20.117,22.567 31.333,24.623 "/>
<path fill="#6E4123" d="M26.069,82.089c-0.875,0-1.678-0.579-1.925-1.463l-13.998-50.08c-0.202-0.723,0.017-1.497,0.567-2.007
	l8.045-7.44c0.463-0.428,1.1-0.614,1.719-0.498l11.217,2.056c0.752,0.138,1.36,0.692,1.565,1.429l13.998,50.081
	c0.144,0.511,0.077,1.058-0.183,1.52c-0.261,0.462-0.694,0.802-1.205,0.944l-19.262,5.384
	C26.428,82.064,26.247,82.089,26.069,82.089z M14.327,30.646l13.131,46.977l15.409-4.307L29.744,26.365l-9.004-1.65L14.327,30.646z"
	/>
<path fill="#6E4123" d="M35.7,79.396c-0.875,0-1.678-0.579-1.925-1.463L18.431,23.038c-0.298-1.063,0.323-2.167,1.388-2.464
	c1.063-0.301,2.167,0.324,2.464,1.388l15.344,54.896c0.298,1.063-0.323,2.167-1.388,2.464C36.059,79.372,35.877,79.396,35.7,79.396z
	"/>
<polygon fill="#F6E89A" points="102.535,83.329 83.072,78.727 95.037,28.122 105.675,25.5 114.499,32.725 "/>
<path fill="#6E4123" d="M102.535,85.329c-0.153,0-0.309-0.018-0.46-0.054l-19.463-4.603c-1.075-0.254-1.74-1.332-1.486-2.406
	L93.09,27.662c0.173-0.73,0.739-1.303,1.468-1.481l10.639-2.622c0.609-0.152,1.258-0.005,1.745,0.394l8.824,7.225
	c0.592,0.484,0.855,1.264,0.68,2.008L104.481,83.79c-0.122,0.517-0.444,0.963-0.896,1.242
	C103.267,85.228,102.903,85.329,102.535,85.329z M85.478,77.24l15.57,3.683l11.218-47.442l-7.084-5.799l-8.48,2.09L85.478,77.24z"/>
<path fill="#6E4123" d="M92.805,83.028c-0.152,0-0.308-0.017-0.462-0.054c-1.075-0.254-1.74-1.332-1.486-2.406l13.116-55.471
	c0.255-1.076,1.332-1.744,2.406-1.486c1.075,0.254,1.74,1.332,1.486,2.406L94.75,81.488C94.532,82.409,93.711,83.028,92.805,83.028z
	"/>
<polygon fill="#F6E89A" points="44.683,80.403 25.072,76.481 35.267,25.491 45.809,22.5 54.879,29.413 "/>
<path fill="#6E4123" d="M44.683,82.403c-0.131,0-0.262-0.013-0.393-0.039l-19.611-3.922c-1.083-0.217-1.785-1.27-1.568-2.354
	l10.195-50.99c0.146-0.735,0.693-1.327,1.415-1.531l10.542-2.991c0.606-0.17,1.259-0.048,1.758,0.333l9.07,6.913
	c0.608,0.464,0.899,1.233,0.749,1.983l-10.196,50.99c-0.104,0.52-0.41,0.978-0.852,1.271C45.461,82.288,45.075,82.403,44.683,82.403
	z M27.425,74.912l15.688,3.138l9.56-47.804l-7.281-5.549l-8.403,2.385L27.425,74.912z"/>
<path fill="#6E4123" d="M34.879,80.442c-0.13,0-0.262-0.013-0.395-0.039c-1.083-0.217-1.785-1.27-1.568-2.354l11.177-55.894
	c0.216-1.082,1.266-1.783,2.354-1.568c1.083,0.217,1.785,1.27,1.568,2.354L36.838,78.835C36.649,79.785,35.813,80.442,34.879,80.442
	z"/>
<polygon fill="#F6E89A" points="87.091,96.317 67.345,99.5 59.072,48.162 67.902,41.675 78.817,44.981 "/>
<path fill="#6E4123" d="M67.345,101.5c-0.418,0-0.828-0.131-1.171-0.379c-0.431-0.311-0.719-0.779-0.804-1.303L57.097,48.48
	c-0.119-0.741,0.186-1.486,0.79-1.93l8.83-6.487c0.509-0.374,1.163-0.484,1.765-0.303l10.915,3.306
	c0.731,0.222,1.272,0.841,1.395,1.596l8.274,51.337c0.084,0.523-0.043,1.06-0.354,1.489c-0.311,0.431-0.779,0.719-1.303,0.804
	l-19.746,3.183C67.557,101.491,67.451,101.5,67.345,101.5z M61.241,49.051l7.761,48.156l15.797-2.546l-7.757-48.129l-8.762-2.653
	L61.241,49.051z"/>
<path fill="#6E4123" d="M77.215,99.909c-0.964,0-1.813-0.699-1.972-1.682l-9.069-56.274c-0.176-1.091,0.565-2.117,1.656-2.293
	c1.082-0.176,2.117,0.565,2.293,1.656l9.069,56.274c0.176,1.091-0.565,2.117-1.656,2.293C77.429,99.901,77.322,99.909,77.215,99.909
	z"/>
<path fill="#6E4123" d="M67.345,102.5c-0.627,0-1.242-0.196-1.757-0.568c-0.645-0.466-1.078-1.169-1.205-1.954L63.017,91.5H50.072
	c-1.573,0-2.879-1.216-2.992-2.785l-0.07-0.977l-1.045,5.224c-0.236,1.182-1.156,2.107-2.336,2.351
	c-1.179,0.24-2.391-0.243-3.075-1.234l-8.632-12.511l-5.044,1.41c-0.767,0.211-1.586,0.114-2.279-0.275
	c-0.693-0.391-1.203-1.04-1.418-1.807L9.182,30.815c-0.303-1.084,0.026-2.246,0.853-3.01l8.045-7.44
	c0.693-0.642,1.644-0.915,2.578-0.749l11.217,2.056c0.722,0.133,1.37,0.525,1.822,1.104l0.086,0.109
	c0.207-0.119,0.431-0.213,0.665-0.279l10.542-2.991c0.694-0.197,1.432-0.138,2.082,0.164v-5.278c0-1.125,0.63-2.156,1.631-2.67
	l9.75-5c0.843-0.43,1.837-0.439,2.685-0.026l10.25,5c1.03,0.503,1.685,1.55,1.685,2.696v24.69l1.922,0.659l2.608-23.314
	c0.12-1.076,0.812-2.004,1.809-2.427l10.084-4.284c0.869-0.37,1.86-0.308,2.679,0.166l9.863,5.725
	c1.001,0.581,1.578,1.686,1.484,2.839l-0.337,4.12l2.272-0.166c0.775-0.051,1.525,0.185,2.119,0.671l8.824,7.225
	c0.888,0.727,1.283,1.896,1.02,3.012L105.455,84.02c-0.184,0.774-0.667,1.444-1.344,1.862c-0.677,0.419-1.489,0.551-2.267,0.367
	l-3.158-0.747l-0.493,6.831c-0.119,1.652-1.548,2.888-3.208,2.776l-5.109-0.369l0.178,1.1c0.264,1.636-0.849,3.176-2.484,3.439
	l-19.746,3.183C67.664,102.487,67.504,102.5,67.345,102.5z M52.864,85.5h12.709c1.473,0,2.728,1.069,2.962,2.522l1.295,8.038
	l13.822-2.228l-0.303-1.88c-0.146-0.905,0.13-1.828,0.75-2.504c0.619-0.676,1.511-1.026,2.428-0.966l5.897,0.426l0.531-7.354
	c0.063-0.877,0.508-1.683,1.217-2.202c0.709-0.521,1.609-0.703,2.466-0.502l3.667,0.867l10.844-45.86l-6.448-5.279l-4.573,0.334
	c-0.878,0.06-1.732-0.258-2.35-0.88c-0.616-0.622-0.931-1.483-0.859-2.356l0.468-5.724l-6.927-4.021l-7.09,3.012l-2.829,25.292
	c-0.102,0.904-0.607,1.714-1.377,2.201c-0.769,0.486-1.72,0.598-2.578,0.303l-7.487-2.57C67.886,43.753,67.5,42.781,67.5,41.5v-25
	l-7.644-3.646l-6.783,3.479v8.416c0,1.052-0.551,2.026-1.451,2.569c-0.899,0.542-2.019,0.574-2.949,0.084l-3.199-1.688l-8.048,2.284
	l-0.621,1.367c-0.434,0.955-1.334,1.614-2.376,1.738c-1.042,0.127-2.072-0.304-2.719-1.131l-2.036-2.604l-8.62-1.579l-5.598,5.177
	l12.697,45.425l4.216-1.179c1.234-0.341,2.549,0.132,3.277,1.186l5.825,8.443l4-20.003c0.294-1.473,1.627-2.487,3.13-2.406
	c1.498,0.094,2.696,1.281,2.804,2.779L52.864,85.5z"/>
<path fill="#FFBAB0" d="M39.325,51.5H17.072l10,59h74l10-59H87.819c0,0,2.253,23.5-23.747,23.5S39.325,51.5,39.325,51.5z"/>
<path fill="#783741" d="M101.072,114.5h-74c-1.464,0-2.713-1.056-2.958-2.499l-10-59c-0.276-1.633,0.823-3.182,2.457-3.459
	c1.623-0.272,3.182,0.823,3.459,2.457l9.576,56.501h68.932l9.576-56.501c0.277-1.634,1.837-2.729,3.459-2.457
	c1.634,0.277,2.733,1.826,2.457,3.459l-10,59C103.785,113.444,102.536,114.5,101.072,114.5z"/>
<path fill="#783741" d="M63.572,78C50.184,78,39.173,67.63,38.15,54.5H17.072c-1.104,0-2-0.896-2-2s0.896-2,2-2h23
	c1.104,0,2,0.896,2,2c0,11.855,9.645,21.5,21.5,21.5s21.5-9.645,21.5-21.5c0-1.104,0.896-2,2-2h24c1.104,0,2,0.896,2,2s-0.896,2-2,2
	H88.994C87.971,67.63,76.96,78,63.572,78z"/>
<polygon fill="#FFFFFF" points="102.488,96.5 25.488,96.5 24.072,86.5 104.072,86.5 "/>
<path fill="#783741" d="M102.488,98.5h-77c-0.996,0-1.841-0.733-1.98-1.72l-1.416-10c-0.081-0.573,0.091-1.154,0.471-1.592
	s0.931-0.688,1.51-0.688h80c0.585,0,1.141,0.256,1.521,0.701s0.547,1.034,0.455,1.611l-1.584,10
	C104.309,97.784,103.471,98.5,102.488,98.5z M27.224,94.5h73.556l0.95-6H26.375L27.224,94.5z"/>
<line fill="none" x1="96.072" y1="111.5" x2="106.072" y2="53.5"/>
<path opacity="0.2" fill="#783741" enable-background="new    " d="M96.076,114.501c-0.17,0-0.341-0.015-0.514-0.045
	c-1.633-0.281-2.729-1.833-2.446-3.466l10-58c0.281-1.633,1.835-2.731,3.466-2.446c1.633,0.281,2.729,1.833,2.446,3.466l-10,58
	C98.777,113.47,97.508,114.501,96.076,114.501z"/>
</svg>
