<?xml version="1.0" encoding="utf-8"?>
<!-- Generator: Adobe Illustrator 17.0.0, SVG Export Plug-In . SVG Version: 6.00 Build 0)  -->
<!DOCTYPE svg PUBLIC "-//W3C//DTD SVG 1.1//EN" "http://www.w3.org/Graphics/SVG/1.1/DTD/svg11.dtd">
<svg version="1.1" id="Слой_3" xmlns="http://www.w3.org/2000/svg" xmlns:xlink="http://www.w3.org/1999/xlink" x="0px" y="0px"
	 width="128px" height="128px" viewBox="0 0 128 128" enable-background="new 0 0 128 128" xml:space="preserve">
<ellipse fill="#B8CBCD" cx="67.264" cy="96.261" rx="47.667" ry="11.813"/>
<path fill="#F7BB83" d="M113.597,69.179h-95c0,0-2.75,15.5,0,20.745c2.44,4.655,21.839,10.839,47.55,10.839
	c25.71,0,45.624-6.279,47.45-10.839C115.597,84.929,113.597,69.179,113.597,69.179z"/>
<path fill="#6E4123" d="M66.147,103.763c-24.087,0-46.61-5.583-50.208-12.446c-3.07-5.855-0.786-19.905-0.297-22.662
	c0.254-1.432,1.5-2.476,2.954-2.476h95c1.511,0,2.786,1.123,2.976,2.622c0.351,2.759,1.988,16.797-0.191,22.238
	C113.62,97.936,90.615,103.763,66.147,103.763z M21.159,72.179c-0.839,5.947-1.271,13.749,0.094,16.353
	c1.509,2.76,18.603,9.231,44.894,9.231c25.975,0,43.1-6.316,44.691-9.012c1.002-2.511,0.695-10.453,0.079-16.572H21.159z"/>
<path fill="#B2EDA6" d="M13.266,73.984c-1.406,5.481,1.241,11.7,6.722,13.104c5.482,1.406,10.844-2.759,12.249-8.239L13.266,73.984z
	"/>
<path fill="#3C663E" d="M22.159,89.364C22.158,89.364,22.159,89.364,22.159,89.364c-0.896,0-1.794-0.113-2.668-0.338
	c-3.162-0.811-5.735-2.973-7.246-6.088c-1.388-2.863-1.722-6.309-0.917-9.451c0.275-1.07,1.363-1.718,2.435-1.44l18.971,4.865
	c1.07,0.274,1.715,1.364,1.44,2.435C32.686,85.151,27.632,89.364,22.159,89.364z M14.905,76.469
	c-0.078,1.637,0.242,3.286,0.938,4.724c0.989,2.039,2.637,3.444,4.64,3.958c0.55,0.142,1.114,0.213,1.675,0.213
	c3.021,0,5.96-2.103,7.443-5.126L14.905,76.469z"/>
<path fill="#B2EDA6" d="M33.679,79.256c-0.294,5.651,3.529,11.224,9.181,11.517c5.65,0.295,10.083-4.848,10.377-10.499
	L33.679,79.256z"/>
<path fill="#3C663E" d="M43.323,92.784C43.323,92.784,43.323,92.784,43.323,92.784c-0.188,0-0.378-0.005-0.568-0.015
	c-3.26-0.169-6.21-1.779-8.307-4.535c-1.927-2.531-2.936-5.842-2.767-9.082c0.027-0.53,0.264-1.027,0.658-1.382
	c0.394-0.355,0.913-0.541,1.443-0.512l19.559,1.018c1.103,0.058,1.951,0.998,1.893,2.101C54.879,87.219,49.536,92.784,43.323,92.784
	z M35.777,81.368c0.247,1.62,0.887,3.174,1.854,4.444c1.372,1.804,3.266,2.855,5.332,2.963c3.709,0.199,6.963-2.695,7.973-6.619
	L35.777,81.368z"/>
<path fill="#B2EDA6" d="M55.757,80.932c0,5.659,4.108,11.025,9.767,11.025c5.658,0,9.818-5.366,9.818-11.025H55.757z"/>
<path fill="#3C663E" d="M65.524,93.958c-6.488,0-11.767-5.843-11.767-13.025c0-1.104,0.896-2,2-2h19.585c1.104,0,2,0.896,2,2
	C77.342,88.115,72.041,93.958,65.524,93.958z M57.969,82.932c0.776,3.675,3.618,7.025,7.555,7.025c3.963,0,6.823-3.351,7.604-7.025
	H57.969z"/>
<path fill="#B2EDA6" d="M117.39,73.984c1.406,5.481-1.241,11.7-6.722,13.104c-5.481,1.406-10.844-2.759-12.25-8.239L117.39,73.984z"
	/>
<path fill="#3C663E" d="M108.498,89.364c-5.474,0-10.527-4.213-12.016-10.018c-0.274-1.07,0.371-2.16,1.44-2.435l18.971-4.865
	c1.073-0.274,2.16,0.37,2.435,1.44c0.806,3.143,0.472,6.588-0.917,9.451c-1.51,3.115-4.084,5.277-7.246,6.088
	C110.291,89.251,109.393,89.364,108.498,89.364z M101.054,80.238c1.758,3.583,5.601,5.816,9.118,4.913
	c2.004-0.514,3.652-1.919,4.641-3.958c0.697-1.438,1.017-3.087,0.938-4.724L101.054,80.238z"/>
<path fill="#B2EDA6" d="M96.977,79.256c0.294,5.651-3.529,11.224-9.181,11.517c-5.65,0.295-10.084-4.848-10.377-10.499
	L96.977,79.256z"/>
<path fill="#3C663E" d="M87.334,92.784c-6.213,0-11.557-5.565-11.912-12.407c-0.058-1.103,0.79-2.043,1.893-2.101l19.559-1.018
	c0.53-0.029,1.049,0.156,1.443,0.512c0.394,0.354,0.631,0.852,0.658,1.382c0.169,3.24-0.84,6.551-2.767,9.082
	C94.111,90.99,91.16,92.6,87.9,92.769C87.711,92.779,87.521,92.784,87.334,92.784z M79.72,82.156
	c1.01,3.923,4.288,6.813,7.972,6.619c2.067-0.107,3.961-1.159,5.333-2.963c0.967-1.271,1.607-2.824,1.854-4.444L79.72,82.156z"/>
<path fill="#B2EDA6" d="M13.266,73.984c-1.117,4.356,0.325,10.31,3.715,12.812"/>
<path fill="#3C663E" d="M16.978,89.796c-0.619,0-1.243-0.19-1.779-0.586c-4.703-3.472-6.153-10.847-4.839-15.971
	c0.411-1.605,2.043-2.57,3.651-2.161c1.605,0.412,2.572,2.047,2.161,3.651c-0.874,3.406,0.361,8.007,2.591,9.652
	c1.333,0.984,1.616,2.862,0.632,4.195C18.806,89.374,17.898,89.796,16.978,89.796z"/>
<path fill="#B2EDA6" d="M117.39,73.984c1.23,4.796,0.443,10.591-3.444,12.904"/>
<path fill="#3C663E" d="M113.949,89.888c-1.023,0-2.02-0.523-2.581-1.466c-0.847-1.424-0.38-3.265,1.044-4.112
	c2.553-1.519,2.973-6.07,2.073-9.581c-0.412-1.604,0.556-3.239,2.161-3.651c1.606-0.408,3.24,0.556,3.651,2.161
	c1.48,5.771,0.565,13.025-4.816,16.228C114.999,89.753,114.47,89.888,113.949,89.888z"/>
<path fill="#FFBAB0" d="M113.909,57.698H17.097c-4.667,0-9.667,9.584-3.449,15.719c4.714,4.651,32.095,7.841,51.855,7.841
	c19.76,0,47.141-3.189,51.855-7.841C123.575,67.282,118.575,57.698,113.909,57.698z"/>
<path fill="#6E4123" d="M65.503,83.258c-18.752,0-47.694-2.925-53.26-8.417C8.1,70.753,8.21,65.431,9.694,61.814
	c1.501-3.658,4.476-6.116,7.402-6.116h96.812c2.927,0,5.901,2.458,7.402,6.116c1.484,3.617,1.594,8.938-2.548,13.026
	C113.197,80.333,84.256,83.258,65.503,83.258z M17.097,59.698c-1.072,0-2.733,1.274-3.702,3.635
	c-0.481,1.173-1.784,5.265,1.658,8.66c3.715,3.666,28.705,7.265,50.451,7.265s46.735-3.599,50.45-7.265
	c3.441-3.396,2.139-7.487,1.658-8.66c-0.969-2.36-2.63-3.635-3.702-3.635H17.097z"/>
<polygon fill="#F6E89A" points="36.847,60.698 80.847,85.678 110.847,59.948 82.847,59.948 "/>
<path fill="#8D4520" d="M80.846,87.678c-0.338,0-0.679-0.086-0.987-0.261l-44-24.98c-0.784-0.445-1.174-1.36-0.951-2.234
	c0.223-0.873,1.003-1.49,1.905-1.505l46-0.75h28.033c0.837,0,1.585,0.521,1.875,1.306c0.291,0.785,0.062,1.668-0.573,2.213
	l-30,25.73C81.777,87.515,81.314,87.678,80.846,87.678z M44.21,62.578l36.402,20.667l24.831-21.297H82.847L44.21,62.578z"/>
<path fill="#F7BB83" d="M65.422,20.906c-46.348,0-47.842,32.667-47.842,35.389c0,4.403,21.249,10.894,47.851,10.894
	c26.602,0,48.167-5.332,48.167-9.786C113.597,53.448,109.347,20.906,65.422,20.906z"/>
<path fill="#6E4123" d="M65.43,70.188c-12.372,0-24.671-1.38-34.633-3.886C14.58,62.222,14.58,57.761,14.58,56.295
	c0-1.567,0.578-38.389,50.842-38.389c24.231,0,36.73,9.762,42.949,17.951c6.749,8.887,8.227,18.565,8.227,21.545
	C116.597,66.717,85.213,70.188,65.43,70.188z M20.59,55.856c2.435,2.649,19.584,8.332,44.84,8.332
	c25.008,0,42.424-4.656,45.138-7.251c-0.158-1.955-1.143-9.77-6.977-17.452c-7.85-10.337-20.692-15.579-38.17-15.579
	C23.392,23.906,20.751,51.829,20.59,55.856z"/>
<circle fill="#6E4123" cx="44.06" cy="38.215" r="2.308"/>
<circle fill="#6E4123" cx="62.522" cy="33.598" r="2.308"/>
<circle fill="#6E4123" cx="56.289" cy="47.756" r="2.308"/>
<circle fill="#6E4123" cx="79.831" cy="35.907" r="2.308"/>
<circle fill="#6E4123" cx="69.905" cy="47.756" r="2.308"/>
<circle fill="#6E4123" cx="87.904" cy="49.756" r="2.308"/>
<circle fill="#6E4123" cx="96.597" cy="43.448" r="2.308"/>
<circle fill="#6E4123" cx="32.521" cy="49.753" r="2.308"/>
<path fill="#6E4123" d="M117.358,77.833c-0.774,0-1.548-0.298-2.135-0.893c-1.164-1.18-1.151-3.079,0.028-4.243
	c2.518-2.483,2.325-6.119,1.305-8.692c-0.912-2.3-2.263-3.298-2.647-3.307c-1.642-0.039-2.983-1.393-2.963-3.035
	c0.02-1.644,1.321-2.965,2.964-2.965c3.278,0,6.402,2.65,8.153,6.918c1.806,4.401,2.072,10.745-2.597,15.353
	C118.881,77.545,118.119,77.833,117.358,77.833z"/>
<path fill="#6E4123" d="M13.648,77.55c-0.761,0-1.522-0.288-2.107-0.864c-4.633-4.572-4.398-10.798-2.633-15.1
	c1.717-4.184,4.931-6.888,8.189-6.888c1.657,0,3,1.343,3,3s-1.343,3-3,3c-0.381,0-1.726,0.941-2.638,3.166
	c-1.026,2.502-1.225,6.062,1.296,8.55c1.18,1.164,1.192,3.063,0.028,4.243C15.196,77.252,14.422,77.55,13.648,77.55z"/>
</svg>
