<?xml version="1.0" encoding="utf-8"?>
<!-- Generator: Adobe Illustrator 17.0.0, SVG Export Plug-In . SVG Version: 6.00 Build 0)  -->
<!DOCTYPE svg PUBLIC "-//W3C//DTD SVG 1.1//EN" "http://www.w3.org/Graphics/SVG/1.1/DTD/svg11.dtd">
<svg version="1.1" id="Слой_3" xmlns="http://www.w3.org/2000/svg" xmlns:xlink="http://www.w3.org/1999/xlink" x="0px" y="0px"
	 width="128px" height="128px" viewBox="0 0 128 128" enable-background="new 0 0 128 128" xml:space="preserve">
<ellipse fill="#B8CBCD" cx="64.429" cy="113.635" rx="47.667" ry="11.813"/>
<path fill="#F7BB83" d="M96.097,66.948l-10.119,43.5c0,4.418-4.037,8-21.5,8s-21.5-3.582-21.5-8l-10.119-43.5"/>
<path fill="#6E4123" d="M64.478,121.448c-11.26,0-24.163-1.219-24.493-10.628L29.937,67.628c-0.376-1.613,0.628-3.227,2.242-3.602
	c1.61-0.379,3.226,0.629,3.602,2.242l10.119,43.5c0.052,0.223,0.078,0.451,0.078,0.68c0,4.133,10.061,5,18.5,5s18.5-0.867,18.5-5
	c0-0.229,0.026-0.457,0.078-0.68l10.119-43.5c0.376-1.613,1.992-2.621,3.602-2.242c1.614,0.375,2.618,1.988,2.242,3.602
	L88.971,110.82C88.641,120.229,75.737,121.448,64.478,121.448z"/>
<path fill="#F7BB83" d="M23.097,43.848c0-6.296,18.58-11.4,41.5-11.4s41.5,5.104,41.5,11.4v15.199c0,6.296-18.58,11.4-41.5,11.4
	s-41.5-5.104-41.5-11.4V43.848z"/>
<path fill="#6E4123" d="M64.597,72.448c-21.617,0-43.5-4.603-43.5-13.4v-15.2c0-8.798,21.883-13.4,43.5-13.4s43.5,4.603,43.5,13.4
	v15.199C108.097,67.845,86.214,72.448,64.597,72.448z M64.597,34.448c-24.112,0-39.5,5.567-39.5,9.4v15.199
	c0,3.833,15.388,9.4,39.5,9.4s39.5-5.567,39.5-9.4V43.848C104.097,40.015,88.709,34.448,64.597,34.448z"/>
<path fill="#6E4123" d="M62.097,90.448c-18.32,0-25.688-4.09-25.992-4.264c-0.959-0.548-1.292-1.77-0.744-2.729
	c0.546-0.957,1.76-1.289,2.719-0.75c0.136,0.074,7.029,3.742,24.018,3.742c1.104,0,2,0.896,2,2S63.201,90.448,62.097,90.448z"/>
<path fill="#F7BB83" d="M22.097,44.698v12.5c0,5.799,18.58,10.5,41.5,10.5s41.5-4.701,41.5-10.5v-14c0,0,1,11.5-42,11.5
	S22.097,44.698,22.097,44.698z"/>
<path fill="#6E4123" d="M55.097,102.448c-9.445,0-14.806-3.151-15.029-3.285c-0.947-0.568-1.254-1.797-0.686-2.744
	c0.566-0.944,1.789-1.253,2.736-0.69c0.075,0.044,4.751,2.72,12.979,2.72c1.104,0,2,0.896,2,2S56.201,102.448,55.097,102.448z"/>
<path fill="#6E4123" d="M63.88,121.448c-11.258,0-24.158-1.218-24.493-10.622l-9.695-41.038c-6.854-2.33-10.192-5.313-10.192-9.091
	V43.948c0-10.656,27.972-13.5,44.5-13.5s44.5,2.844,44.5,13.5v16.983c0,3.509-3.335,6.335-10.463,8.832l-9.663,41.061
	C88.04,120.23,75.138,121.448,63.88,121.448z M63.999,36.448c-25.506,0-37.88,5.405-38.506,7.557l0.006,16.692
	c0.131,0.412,1.821,2.142,7.587,3.879c1.025,0.309,1.809,1.141,2.055,2.183l10.159,43c0.053,0.226,0.08,0.457,0.08,0.689
	c0,4.133,10.061,5,18.5,5s18.5-0.867,18.5-5c0-0.231,0.026-0.462,0.08-0.688l10.119-43c0.241-1.026,1.004-1.851,2.009-2.171
	c6.183-1.972,7.643-3.514,7.911-3.87V43.948C101.879,41.853,89.505,36.448,63.999,36.448z"/>
<circle fill="#F6E89A" cx="64.497" cy="27.195" r="20.747"/>
<path fill="#6E4123" d="M64.497,50.941c-13.094,0-23.747-10.652-23.747-23.746S51.403,3.448,64.497,3.448
	s23.746,10.653,23.746,23.747S77.591,50.941,64.497,50.941z M64.497,9.448c-9.786,0-17.747,7.961-17.747,17.747
	c0,9.785,7.961,17.746,17.747,17.746c9.785,0,17.746-7.961,17.746-17.746C82.243,17.409,74.282,9.448,64.497,9.448z"/>
<path fill="#B2EDA6" d="M49.719,22.538c-11.458,0-20.747,9.289-20.747,20.747c0,4.036,1.171,7.791,3.165,10.978
	c5.065,0.669,10.032,1.782,15.019,2.854c0.755-0.569,1.735-0.919,2.941-0.919c1.262,0,2.272,0.386,3.04,1.002
	c3.999,0.01,7.994,0.038,11.984-0.03c3.319-3.677,5.344-8.542,5.344-13.885C70.465,31.827,61.176,22.538,49.719,22.538z"/>
<path fill="#3C663E" d="M59.057,60.215c-1.331,0-2.664-0.005-3.996-0.009L53.13,60.2c-0.681-0.002-1.341-0.234-1.871-0.66
	c-0.286-0.23-0.666-0.342-1.162-0.342c-0.477,0-0.858,0.105-1.135,0.314c-0.695,0.524-1.585,0.721-2.438,0.537l-1.326-0.285
	c-4.404-0.951-8.958-1.934-13.454-2.527c-0.888-0.117-1.676-0.625-2.15-1.383c-2.369-3.787-3.622-8.133-3.622-12.569
	c0-13.094,10.653-23.747,23.747-23.747s23.746,10.653,23.746,23.747c0,5.881-2.173,11.525-6.117,15.896
	c-0.557,0.616-1.345,0.975-2.175,0.989C63.135,60.204,61.097,60.215,59.057,60.215z M54.046,54.203l1.033,0.003
	c2.879,0.009,5.756,0.019,8.63-0.016c2.431-3.109,3.756-6.936,3.756-10.905c0-9.786-7.961-17.747-17.746-17.747
	c-9.786,0-17.747,7.961-17.747,17.747c0,2.86,0.699,5.672,2.032,8.21c4.233,0.629,8.408,1.529,12.46,2.404l0.186,0.04
	c1.041-0.488,2.21-0.741,3.447-0.741C51.538,53.198,52.883,53.543,54.046,54.203z"/>
<path fill="#FFBAB0" d="M82.65,22.538c-11.458,0-20.747,9.289-20.747,20.747c0,5.428,2.101,10.352,5.516,14.046
	c0.4-0.004,0.801,0.015,1.201,0.022c0.803-0.848,1.959-1.405,3.477-1.405c1.445,0,2.564,0.505,3.361,1.284
	c1.011-0.083,2.024-0.18,3.048-0.383c2.897-0.576,5.77-1.172,8.696-1.587c4.48-0.634,8.968-0.677,13.362-1.549
	c1.789-3.066,2.832-6.622,2.832-10.429C103.397,31.827,94.107,22.538,82.65,22.538z"/>
<path fill="#783741" d="M68.62,60.353c-0.02,0-0.039,0-0.059-0.001l-0.415-0.01c-0.215-0.006-0.438-0.013-0.645-0.012
	c-0.838,0-1.718-0.349-2.286-0.964c-4.07-4.403-6.313-10.115-6.313-16.082c0-13.094,10.653-23.747,23.747-23.747
	s23.746,10.653,23.746,23.747c0,4.178-1.121,8.307-3.241,11.94c-0.433,0.742-1.164,1.264-2.007,1.431
	c-2.736,0.543-5.476,0.781-8.126,1.011c-1.782,0.155-3.626,0.315-5.4,0.566c-2.509,0.355-4.953,0.844-7.54,1.361L79.09,59.79
	c-1.207,0.239-2.381,0.348-3.388,0.431c-0.874,0.068-1.722-0.238-2.343-0.846c-0.295-0.288-0.708-0.429-1.264-0.429
	c-0.767,0-1.108,0.268-1.298,0.468C70.232,60.015,69.443,60.353,68.62,60.353z M72.097,52.948c1.588,0,3.036,0.407,4.263,1.188
	c0.521-0.056,1.048-0.128,1.563-0.229l0.984-0.196c2.555-0.511,5.197-1.039,7.875-1.419c1.936-0.273,3.86-0.44,5.723-0.603
	c2.111-0.183,4.128-0.358,6.103-0.673c1.175-2.413,1.79-5.061,1.79-7.731c0-9.786-7.961-17.747-17.746-17.747
	c-9.786,0-17.747,7.961-17.747,17.747c0,3.812,1.228,7.485,3.489,10.528C69.49,53.243,70.74,52.948,72.097,52.948z"/>
<path fill="#F7BB83" d="M24.097,60.448v-16.5c0,5.799,17.58,10.5,40.5,10.5s40.5-4.701,40.5-10.5v16.5"/>
<path fill="#6E4123" d="M104.5,62.448c-1.104,0-2-0.896-2-2v-10.77c-7.272,4.617-23.315,6.77-38.5,6.77s-31.228-2.152-38.5-6.77
	v10.77c0,1.104-0.896,2-2,2s-2-0.896-2-2v-16.5c0-1.104,0.896-2,2-2s2,0.896,2,2c0,2.967,13.223,8.5,38.5,8.5s38.5-5.533,38.5-8.5
	c0-1.104,0.896-2,2-2s2,0.896,2,2v16.5C106.5,61.552,105.604,62.448,104.5,62.448z"/>
<path opacity="0.2" fill="#6E4123" enable-background="new    " d="M79.503,117.449c-0.233,0-0.47-0.027-0.707-0.085
	c-1.61-0.39-2.601-2.011-2.211-3.621l11.119-46c0.246-1.019,1.006-1.835,2.005-2.153c2.096-0.668,4.067-1.058,5.807-1.402
	c0.98-0.193,2.235-0.441,2.985-0.677V46.448c0-1.657,1.343-3,3-3s3,1.343,3,3v18c0,4.079-4.155,4.901-7.822,5.626
	c-1.107,0.219-2.318,0.458-3.553,0.775l-10.709,44.304C82.085,116.526,80.856,117.449,79.503,117.449z"/>
</svg>
