<?xml version="1.0" encoding="utf-8"?>
<!-- Generator: Adobe Illustrator 17.0.0, SVG Export Plug-In . SVG Version: 6.00 Build 0)  -->
<!DOCTYPE svg PUBLIC "-//W3C//DTD SVG 1.1//EN" "http://www.w3.org/Graphics/SVG/1.1/DTD/svg11.dtd">
<svg version="1.1" id="Слой_3" xmlns="http://www.w3.org/2000/svg" xmlns:xlink="http://www.w3.org/1999/xlink" x="0px" y="0px"
	 width="128px" height="128px" viewBox="0 0 128 128" enable-background="new 0 0 128 128" xml:space="preserve">
<path fill="#6E4123" d="M100.019,94.948c-2.647,0-4.797-0.316-7.335-1.892c-1.408-0.873-1.841-2.723-0.968-4.131
	c0.873-1.407,2.723-1.842,4.131-0.967c1.237,0.768,2.173,0.989,4.172,0.989c5.075,0,9.204-4.129,9.204-9.204
	s-4.129-9.204-9.204-9.204c-1.657,0-3-1.343-3-3s1.343-3,3-3c8.384,0,15.204,6.82,15.204,15.204S108.403,94.948,100.019,94.948z"/>
<ellipse fill="#B8CBCD" cx="64.666" cy="109.761" rx="47.667" ry="11.813"/>
<path fill="#F7BB83" d="M100.265,55.322v14c0,22.644-14.357,41-37,41h2c-22.644,0-39-18.356-39-41v-14"/>
<path fill="#6E4123" d="M65.265,113.322h-2c-0.243,0-0.479-0.028-0.704-0.083c-10.615-0.655-20.292-5.171-27.481-12.88
	C27.461,92.19,23.5,81.346,23.5,69.5v-14c0-1.657,1.108-3.178,2.765-3.178s3,1.343,3,3v14c0,21.31,14.976,37.464,34.998,37.987
	c19.483-0.512,33.002-15.987,33.002-37.987v-14c0-1.657,1.343-3,3-3s3,1.343,3,3v14c0,24.488-15.52,42.527-37.285,43.914
	C65.751,113.293,65.512,113.322,65.265,113.322z"/>
<path fill="#F7BB83" d="M100.265,55.322v14c0,22.644-15.357,41-38,41h2c-22.644,0-38-18.356-38-41v-14"/>
<path fill="#6E4123" d="M64.265,113.322h-2c-0.247,0-0.487-0.03-0.717-0.086C39.538,111.833,23.5,93.602,23.5,69.5v-14
	c0-1.657,1.108-3.178,2.765-3.178s3,1.343,3,3v14c0,21.654,14.238,37.47,34,37.987c19.762-0.518,34-16.333,34-37.987v-14
	c0-1.657,1.343-3,3-3s3,1.343,3,3v14c0,24.103-16.273,42.511-38.283,43.914C64.752,113.292,64.512,113.322,64.265,113.322z"/>
<path fill="#F7BB83" d="M100.265,55.322v14c0,22.644-15.357,41-38,41h2c-22.644,0-38-18.356-38-41v-14"/>
<path fill="#6E4123" d="M64.265,113.322h-2c-0.247,0-0.487-0.03-0.717-0.086C39.538,111.833,23.5,93.602,23.5,69.5v-14
	c0-1.657,1.108-3.178,2.765-3.178s3,1.343,3,3v14c0,21.654,14.238,37.47,34,37.987c19.762-0.518,34-16.333,34-37.987v-14
	c0-1.657,1.343-3,3-3s3,1.343,3,3v14c0,24.103-16.273,42.511-38.283,43.914C64.752,113.292,64.512,113.322,64.265,113.322z"/>
<path fill="#FFFFFF" d="M64.265,110.322h2c-0.337,0-0.667-0.018-1-0.025C64.932,110.304,64.602,110.322,64.265,110.322z"/>
<path fill="#FFFFFF" d="M36.265,69.322v-9.374l-8-4.626v14c0,22.307,14.908,40.439,37,40.975c1.361-0.033,2.695-0.132,4-0.296
	C49.394,107.51,36.265,90.255,36.265,69.322z"/>
<path fill="#F7BB83" d="M96.265,62.948c0,22.644-11,43-36,46v1"/>
<path opacity="0.2" fill="#6E4123" enable-background="new    " d="M60.265,112.948c-1.657,0-3-1.343-3-3v-1
	c0-1.519,1.135-2.798,2.643-2.979c20.887-2.507,33.357-18.589,33.357-43.021c0-1.657,1.343-3,3-3s3,1.343,3,3
	c0,26.526-13.928,44.979-36.512,48.677C62.214,112.424,61.301,112.948,60.265,112.948z"/>
<path fill="#F7BB83" d="M26.265,55.948c0-4.694,15.461-8.5,37-8.5s37,3.806,37,8.5"/>
<path fill="#6E4123" d="M100.265,58.948c-1.584,0-2.881-1.228-2.992-2.783c-1.38-2.042-12.513-5.717-34.008-5.717
	s-32.628,3.675-34.008,5.717c-0.111,1.556-1.408,2.783-2.992,2.783c-1.657,0-2.765-1.791-2.765-3.448
	c0-10.946,33.085-11.052,39.765-11.052s40,0.554,40,11.5C103.265,57.605,101.922,58.948,100.265,58.948z"/>
<path fill="#6E4123" d="M63.265,64.822c-17.991,0-39-2.75-39-10.5c0-1.104,0.896-2,2-2s2,0.896,2,2c0,1.79,10.762,6.5,35,6.5
	s35-4.71,35-6.5c0-1.104,0.896-2,2-2s2,0.896,2,2C102.265,62.072,81.256,64.822,63.265,64.822z"/>
<ellipse transform="matrix(-0.7071 -0.7071 0.7071 -0.7071 50.6073 187.2244)" fill="#FFFFFF" cx="64.079" cy="83.131" rx="7.544" ry="11.576"/>
<path fill="#6E4123" d="M60.126,94.904c-2.272,0-4.225-0.751-5.646-2.172c-3.784-3.783-2.531-10.964,2.851-16.348
	c3.145-3.146,7.146-5.022,10.702-5.022c2.272,0,4.225,0.751,5.646,2.172c3.784,3.785,2.531,10.966-2.851,16.348
	C67.683,93.026,63.683,94.904,60.126,94.904z M68.033,75.362c-2.481,0-5.499,1.476-7.874,3.851
	c-3.67,3.671-4.976,8.566-2.851,10.691c0.827,0.826,1.989,1,2.817,1c2.481,0,5.499-1.476,7.874-3.851
	c3.67-3.67,4.975-8.566,2.851-10.691C70.024,75.536,68.862,75.362,68.033,75.362z"/>
<path fill="#6E4123" d="M56.265,91.948c-1.104,0-2-0.896-2-2c0-4.026,4.36-6.284,10.059-8.816c4.899-2.178,4.942-5.987,4.941-6.148
	c-0.004-1.094,0.872-2.002,1.966-2.021c1.091-0.003,1.999,0.831,2.033,1.924c0.008,0.269,0.115,6.597-7.315,9.9
	c-5.458,2.425-7.684,3.92-7.684,5.161C58.265,91.052,57.37,91.948,56.265,91.948z"/>
<path fill="#6E4123" d="M66.921,40.948c-4.224,0-8.713-2.979-8.713-8.498c0-4.137,3.147-6.642,5.444-8.472
	c1.313-1.045,2.801-2.23,2.801-3.021c0-0.836-0.193-1.728-2.497-1.728c-1.657,0-3-1.343-3-3s1.343-3,3-3
	c5.869,0,8.497,3.881,8.497,7.728c0,3.683-2.808,5.918-5.064,7.715c-1.922,1.53-3.182,2.62-3.182,3.778
	c0,2.428,2.436,2.498,2.713,2.498c1.657,0,3,1.343,3,3S68.578,40.948,66.921,40.948z"/>
<path fill="#6E4123" d="M64.265,113.322h-2c-0.247,0-0.487-0.03-0.717-0.086C39.538,111.833,23.5,93.602,23.5,69.5v-14
	c0-1.657,1.108-3.178,2.765-3.178S29.5,53.843,29.5,55.5v14c0,21.654,14.003,37.292,33.765,37.809c19.762-0.518,34-16.333,34-37.987
	v-14c0-1.657,1.343-3,3-3s3,1.343,3,3v14c0,24.103-16.273,42.511-38.283,43.914C64.752,113.292,64.512,113.322,64.265,113.322z"/>
</svg>
