<?xml version="1.0" encoding="utf-8"?>
<!-- Generator: Adobe Illustrator 17.0.0, SVG Export Plug-In . SVG Version: 6.00 Build 0)  -->
<!DOCTYPE svg PUBLIC "-//W3C//DTD SVG 1.1//EN" "http://www.w3.org/Graphics/SVG/1.1/DTD/svg11.dtd">
<svg version="1.1" id="Слой_3" xmlns="http://www.w3.org/2000/svg" xmlns:xlink="http://www.w3.org/1999/xlink" x="0px" y="0px"
	 width="128px" height="128px" viewBox="0 0 128 128" enable-background="new 0 0 128 128" xml:space="preserve">
<ellipse fill="#B8CBCD" cx="61.299" cy="104.903" rx="45.202" ry="11.813"/>
<path fill="#F7BB83" d="M16.097,47.112c0,34.574,28.028,62.602,62.602,62.602L117.354,4.716L16.097,47.112z"/>
<path fill="#FFFFFF" d="M89.222,36.065c0,6.781,4.353,12.531,10.412,14.648l2.587-7.028c-3.194-1.06-5.503-4.068-5.503-7.62
	c0-4.436,3.596-8.032,8.033-8.032c1.066,0,2.083,0.212,3.016,0.591l2.587-7.029c-1.739-0.674-3.625-1.059-5.603-1.059
	C96.173,20.536,89.222,27.489,89.222,36.065z"/>
<path fill="#3C663E" d="M99.634,52.715c-0.219,0-0.441-0.037-0.66-0.113c-7.029-2.456-11.752-9.102-11.752-16.536
	c0-9.666,7.863-17.529,17.529-17.529c2.152,0,4.28,0.401,6.325,1.193c1.018,0.395,1.531,1.532,1.154,2.556l-2.587,7.029
	c-0.188,0.509-0.573,0.92-1.068,1.139c-0.497,0.221-1.061,0.228-1.562,0.023c-0.725-0.294-1.486-0.443-2.263-0.443
	c-3.327,0-6.033,2.706-6.033,6.032c0,2.602,1.661,4.901,4.133,5.722c0.515,0.171,0.938,0.543,1.172,1.03
	c0.235,0.488,0.263,1.051,0.075,1.559l-2.587,7.028C101.214,52.212,100.449,52.715,99.634,52.715z M104.751,22.536
	c-7.46,0-13.529,6.069-13.529,13.529c0,5.073,2.852,9.67,7.264,11.978l1.218-3.309c-3.047-1.769-4.985-5.042-4.985-8.669
	c0-5.532,4.501-10.032,10.033-10.032c0.601,0,1.194,0.054,1.779,0.159l1.22-3.313C106.763,22.651,105.76,22.536,104.751,22.536z"/>
<path fill="#FFFFFF" d="M104.751,28.033c-4.438,0-8.033,3.597-8.033,8.032c0,3.552,2.309,6.56,5.503,7.62l5.546-15.061
	C106.834,28.245,105.817,28.033,104.751,28.033z"/>
<path fill="#3C663E" d="M102.221,45.685c-0.209,0-0.421-0.032-0.63-0.102c-4.111-1.365-6.873-5.19-6.873-9.519
	c0-5.532,4.501-10.032,10.033-10.032c1.295,0,2.563,0.248,3.769,0.738c0.999,0.405,1.497,1.531,1.124,2.544l-5.546,15.062
	C103.801,45.182,103.037,45.685,102.221,45.685z M104.751,30.033c-3.327,0-6.033,2.706-6.033,6.032c0,1.934,0.918,3.7,2.403,4.817
	l3.991-10.839C104.992,30.037,104.872,30.033,104.751,30.033z"/>
<path fill="#FFBAB0" d="M36.418,38.218c-0.026,0.424-0.065,0.845-0.065,1.275c0,11.167,9.053,20.22,20.221,20.22
	c11.168,0,20.22-9.053,20.22-20.22c0-6.098-2.711-11.552-6.979-15.259L36.418,38.218z"/>
<path fill="#783741" d="M56.574,61.714c-12.252,0-22.221-9.968-22.221-22.22c0-0.376,0.024-0.745,0.049-1.114l0.019-0.285
	c0.047-0.76,0.521-1.427,1.224-1.721L69.043,22.39c0.701-0.295,1.51-0.165,2.084,0.335c4.872,4.232,7.667,10.345,7.667,16.769
	C78.794,51.746,68.826,61.714,56.574,61.714z M38.354,39.576c0.045,10.009,8.201,18.138,18.221,18.138
	c10.046,0,18.22-8.173,18.22-18.22c0-4.858-1.952-9.5-5.394-12.917L38.354,39.576z"/>
<circle fill="#FFFFFF" cx="58.926" cy="50.308" r="3.762"/>
<path fill="#783741" d="M58.926,56.071c-3.177,0-5.762-2.585-5.762-5.763c0-3.177,2.584-5.762,5.762-5.762s5.762,2.585,5.762,5.762
	C64.688,53.486,62.103,56.071,58.926,56.071z M58.926,48.547c-0.971,0-1.762,0.79-1.762,1.762s0.791,1.763,1.762,1.763
	s1.762-0.791,1.762-1.763S59.897,48.547,58.926,48.547z"/>
<circle fill="#FFFFFF" cx="49.116" cy="42.952" r="3.762"/>
<path fill="#783741" d="M49.116,48.714c-3.178,0-5.763-2.585-5.763-5.762s2.585-5.762,5.763-5.762c3.176,0,5.761,2.585,5.761,5.762
	S52.293,48.714,49.116,48.714z M49.116,41.19c-0.972,0-1.763,0.79-1.763,1.762s0.791,1.762,1.763,1.762
	c0.971,0,1.761-0.79,1.761-1.762S50.087,41.19,49.116,41.19z"/>
<circle fill="#FFFFFF" cx="66.449" cy="39.023" r="3.762"/>
<path fill="#783741" d="M66.449,44.785c-3.177,0-5.762-2.585-5.762-5.762c0-3.178,2.584-5.763,5.762-5.763
	c3.177,0,5.762,2.585,5.762,5.763C72.211,42.2,69.626,44.785,66.449,44.785z M66.449,37.261c-0.971,0-1.762,0.791-1.762,1.763
	s0.791,1.762,1.762,1.762s1.762-0.79,1.762-1.762S67.421,37.261,66.449,37.261z"/>
<path fill="#FFBAB0" d="M96.354,61.836c-2.424-2.79-5.989-4.563-9.976-4.563c-7.302,0-13.221,5.919-13.221,13.22
	c0,7.302,5.919,13.221,13.221,13.221c0.281,0,0.557-0.024,0.833-0.042L96.354,61.836z"/>
<path fill="#783741" d="M86.378,85.714c-8.393,0-15.221-6.828-15.221-15.221s6.828-15.22,15.221-15.22
	c4.4,0,8.586,1.914,11.485,5.251c0.499,0.574,0.629,1.382,0.335,2.084l-9.143,21.836c-0.294,0.701-0.959,1.175-1.718,1.224
	l-0.17,0.012C86.906,85.697,86.645,85.714,86.378,85.714z M86.378,59.273c-6.188,0-11.221,5.033-11.221,11.22
	c0,6.016,4.759,10.941,10.71,11.209l8.134-19.426C91.933,60.355,89.215,59.273,86.378,59.273z"/>
<path fill="#6E4123" d="M78.698,112.714c-36.173,0-65.602-29.429-65.602-65.602c0-1.209,0.726-2.3,1.841-2.768L116.195,1.948
	c1.104-0.46,2.371-0.224,3.232,0.601c0.862,0.825,1.153,2.083,0.741,3.203L81.514,110.75
	C81.079,111.929,79.955,112.714,78.698,112.714z M19.13,49.094c1.027,31.259,26.243,56.507,57.49,57.583l35.539-96.534L19.13,49.094
	z"/>
<path fill="#F6E89A" d="M42.354,77.714c-4.5-4.5-3.685-13.528-8-20c-4-6-8-7-13-12c-0.194-0.194-1.71-0.771-2-1l-2,1.039
	c0,34.574,28.027,62.602,62.602,62.602l6.141-16.679c-5.112-1.105-14.067,2.712-19.742-2.962
	C59.354,81.714,46.854,82.214,42.354,77.714z"/>
<path fill="#6E4123" d="M79.955,110.354c-35.622,0-64.602-28.98-64.602-64.602c0-0.746,0.416-1.431,1.078-1.774l2-1.039
	c0.661-0.345,1.455-0.289,2.062,0.131c0.161,0.089,0.426,0.202,0.686,0.319c0.852,0.382,1.243,0.565,1.588,0.91
	c1.869,1.868,3.608,3.161,5.29,4.411c2.749,2.042,5.345,3.972,7.96,7.894c2.232,3.349,3.204,7.291,4.06,10.77
	c0.88,3.572,1.71,6.946,3.69,8.926c1.634,1.634,5.066,2.603,8.7,3.628c5.178,1.462,11.046,3.118,15.3,7.372
	c1.813,1.813,4.212,2.622,7.775,2.622c1.415,0,2.863-0.121,4.264-0.238c2.561-0.214,4.977-0.339,6.712,0.037
	c0.565,0.123,1.051,0.484,1.33,0.992c0.278,0.507,0.324,1.11,0.124,1.654l-6.141,16.679
	C81.542,109.832,80.793,110.354,79.955,110.354z M19.365,46.962c0.637,32.396,26.827,58.644,59.201,59.377l4.739-12.873
	c-0.972,0.021-2.041,0.11-3.166,0.204c-1.482,0.124-3.016,0.252-4.597,0.252c-2.923,0-7.203-0.394-10.604-3.794
	c-3.516-3.516-8.852-5.022-13.559-6.351c-4.15-1.172-8.07-2.278-10.441-4.649c-2.769-2.769-3.729-6.669-4.746-10.798
	c-0.816-3.313-1.66-6.74-3.504-9.507c-2.229-3.345-4.448-4.993-7.018-6.902c-1.667-1.238-3.551-2.639-5.563-4.625
	c-0.152-0.075-0.359-0.164-0.566-0.257c-0.06-0.027-0.119-0.054-0.175-0.079L19.365,46.962z"/>
<path fill="#6E4123" d="M78.698,112.714c-36.173,0-65.602-29.429-65.602-65.602c0-1.209,0.726-2.3,1.841-2.768L116.195,1.948
	c1.104-0.46,2.371-0.224,3.232,0.601c0.862,0.825,1.153,2.083,0.741,3.203L81.514,110.75
	C81.079,111.929,79.955,112.714,78.698,112.714z M19.13,49.094c1.027,31.259,26.243,56.507,57.49,57.583l35.539-96.534L19.13,49.094
	z"/>
</svg>
