<?xml version="1.0" encoding="UTF-8"?>
<svg width="15px" height="15px" viewBox="0 0 15 15" version="1.1" xmlns="http://www.w3.org/2000/svg" xmlns:xlink="http://www.w3.org/1999/xlink">
    <title>􀐫</title>
    <g id="Page-1" stroke="none" stroke-width="1" fill="none" fill-rule="evenodd">
        <path d="M7.19628906,14.0371094 C11.0107422,14.0371094 14.1689453,10.8720703 14.1689453,7.06445312 C14.1689453,3.25 11.0039062,0.091796875 7.18945312,0.091796875 C3.38183594,0.091796875 0.223632812,3.25 0.223632812,7.06445312 C0.223632812,10.8720703 3.38867188,14.0371094 7.19628906,14.0371094 Z M7.19628906,12.875 C3.96972656,12.875 1.39257812,10.2910156 1.39257812,7.06445312 C1.39257812,3.83789062 3.96289062,1.25390625 7.18945312,1.25390625 C10.4160156,1.25390625 13,3.83789062 13.0068494,7.06445312 C13.0136719,10.2910156 10.4228516,12.875 7.19628906,12.875 Z M7.18945312,7.80273438 C7.45605469,7.80273438 7.66796875,7.59765625 7.66796875,7.32421875 L7.66796875,2.71679688 C7.66796875,2.45019531 7.45605469,2.24511719 7.18945312,2.24511719 C6.92285156,2.24511719 6.71777344,2.45019531 6.71777344,2.71679688 L6.71777344,6.85253906 L3.62109375,6.85253906 C3.34765625,6.85253906 3.14257812,7.05761719 3.14257812,7.32421875 C3.14257812,7.59765625 3.34765625,7.80273438 3.62109375,7.80273438 L7.18945312,7.80273438 Z" id="􀐫" fill="#34D399" fill-rule="nonzero"></path>
    </g>
</svg>
