<?xml version="1.0" encoding="utf-8"?>
<!-- Generator: Adobe Illustrator 17.0.0, SVG Export Plug-In . SVG Version: 6.00 Build 0)  -->
<!DOCTYPE svg PUBLIC "-//W3C//DTD SVG 1.1//EN" "http://www.w3.org/Graphics/SVG/1.1/DTD/svg11.dtd">
<svg version="1.1" id="Слой_3" xmlns="http://www.w3.org/2000/svg" xmlns:xlink="http://www.w3.org/1999/xlink" x="0px" y="0px"
	 width="128px" height="128px" viewBox="0 0 128 128" enable-background="new 0 0 128 128" xml:space="preserve">
<ellipse fill="#B8CBCD" cx="62.764" cy="113.135" rx="47.667" ry="11.813"/>
<ellipse fill="#FFFFFF" cx="62.538" cy="39.448" rx="31.776" ry="6.5"/>
<path fill="#B9E3ED" d="M30.762,39.448c0-3.59,14.227-6.5,31.776-6.5c17.55,0,31.776,2.91,31.776,6.5l-9.218,67.5
	c0,3.59-5.009,6.5-22.559,6.5c-17.549,0-23.441-2.91-23.441-6.5L30.762,39.448z"/>
<path fill="#FFFFFF" d="M90.63,71.948l-5.533,35c0,3.59-5.009,6.5-22.559,6.5c-17.549,0-23.441-2.91-23.441-6.5l-4.651-35
	c0,0,7.369-7,28.553-7C82.341,64.948,90.63,71.948,90.63,71.948"/>
<path fill="#324654" d="M63,74.949c-0.168,0-0.34-0.021-0.51-0.066c-1.068-0.281-1.707-1.375-1.425-2.443l11.052-42
	c0.281-1.068,1.37-1.708,2.443-1.425c1.068,0.281,1.706,1.375,1.426,2.443l-11.053,42C64.696,74.354,63.886,74.949,63,74.949z"/>
<path opacity="0.2" fill="#324654" enable-background="new    " d="M79.883,109.948c-0.136,0-0.272-0.009-0.41-0.027
	c-1.642-0.225-2.79-1.737-2.566-3.379l9.218-67.5c0.226-1.642,1.744-2.786,3.379-2.567c1.642,0.225,2.79,1.737,2.566,3.378
	l-9.218,67.5C82.646,108.858,81.36,109.948,79.883,109.948z"/>
<path fill="#324654" d="M74.974,34.5c-0.294,0-0.592-0.043-0.887-0.135c-1.583-0.489-2.47-2.169-1.98-3.752l7.368-23.834
	c0.389-1.257,1.551-2.114,2.866-2.114h18.421c1.657,0,3,1.343,3,3S102.157,10.5,100.5,10.5h-16l-6.661,21.885
	C77.441,33.673,76.255,34.5,74.974,34.5z"/>
<circle fill="#324654" cx="51.097" cy="93.948" r="3"/>
<circle fill="#324654" cx="68.262" cy="90.448" r="2.5"/>
<circle fill="#324654" cx="63.762" cy="101.948" r="2"/>
<path fill="#FFFFFF" d="M55.896,112.22c-5.845-1.181-8.109-3.102-8.109-5.272l-8.717-67.5c0-1.706,3.362-3.258,8.86-4.417
	c0.014-0.338,0.045-0.667,0.091-0.986c-8.898,1.167-14.758,3.151-14.758,5.403l8.717,67.5c0,2.801,3.752,5.188,14.117,6.102
	C56.028,112.772,55.959,112.496,55.896,112.22z"/>
<path fill="#324654" d="M62.538,116.448c-11.257,0-26.193-0.968-26.438-9.291l-8.315-67.341c-0.015-0.122-0.022-0.245-0.022-0.368
	c0-8.815,26.618-9.5,34.776-9.5s34.776,0.685,34.776,9.5c0,0.136-0.009,0.271-0.027,0.406l-9.193,67.323
	C87.847,115.387,74.329,116.448,62.538,116.448z M33.852,39.99l8.223,66.591c0.015,0.121,0.022,0.244,0.022,0.367
	c0,0.035,1.523,3.5,20.441,3.5c19.026,0,19.559-3.465,19.559-3.5c0-0.136,0.009-0.271,0.027-0.406l9.09-66.56
	c-2.241-1.518-12.184-4.034-28.676-4.034C46.019,35.948,36.07,38.473,33.852,39.99z"/>
<path fill="#324654" d="M62.538,47.948c-3.457,0-33.776-0.238-33.776-8.5c0-1.104,0.896-2,2-2c1.048,0,1.909,0.807,1.993,1.833
	c1.2,1.708,11.955,4.667,29.783,4.667c17.829,0,28.583-2.958,29.783-4.667c0.085-1.027,0.944-1.833,1.993-1.833c1.104,0,2,0.896,2,2
	C96.315,47.71,65.995,47.948,62.538,47.948z"/>
<path fill="#324654" d="M90.63,71.948c-0.98,0-1.796-0.705-1.967-1.636c-1.49-1.404-11.565-3.864-26.763-3.864
	c-15.195,0-23.685,2.447-24.906,3.774c-0.134,0.975-0.97,1.726-1.981,1.726c-1.104,0-2-0.896-2-2c0-7.139,24.064-7.5,28.888-7.5
	c3.146,0,30.729,0.211,30.729,7.5C92.63,71.052,91.735,71.948,90.63,71.948z"/>
<path fill="#324654" d="M63.742,79.448c-3.146,0-30.729-0.211-30.729-7.5c0-1.104,0.896-2,2-2c0.98,0,1.796,0.705,1.967,1.636
	c1.49,1.404,11.565,3.864,26.763,3.864c15.195,0,23.685-2.447,24.906-3.774c0.134-0.975,0.97-1.726,1.981-1.726c1.104,0,2,0.896,2,2
	C92.63,79.087,68.567,79.448,63.742,79.448z"/>
</svg>
